<mxfile host="65bd71144e">
    <diagram id="vw2Lo8mA7pejnaoP5laj" name="Страница 1">
        <mxGraphModel dx="1118" dy="534" grid="1" gridSize="10" guides="1" tooltips="1" connect="1" arrows="1" fold="1" page="1" pageScale="1" pageWidth="827" pageHeight="1169" math="0" shadow="0">
            <root>
                <mxCell id="0"/>
                <mxCell id="1" parent="0"/>
                <mxCell id="11" value="«interface»&lt;br&gt;&lt;b&gt;tankType : T72 | ManualForT72&lt;br&gt;frame : string&lt;br&gt;tower : string&lt;br&gt;canon : string&lt;br&gt;&lt;/b&gt;setFrame(frame): void&lt;br&gt;setTower(tower): void&lt;br&gt;setCanon(canon): void&lt;br&gt;setModifiedVersion(frame,tower,canon): void" style="html=1;" parent="1" vertex="1">
                    <mxGeometry x="310" y="70" width="260" height="160" as="geometry"/>
                </mxCell>
                <mxCell id="40" style="edgeStyle=none;html=1;entryX=1;entryY=1;entryDx=0;entryDy=0;dashed=1;endArrow=block;endFill=0;" parent="1" source="12" target="11" edge="1">
                    <mxGeometry relative="1" as="geometry"/>
                </mxCell>
                <mxCell id="43" style="edgeStyle=none;html=1;entryX=0.5;entryY=0;entryDx=0;entryDy=0;endArrow=classic;endFill=1;" parent="1" source="12" target="44" edge="1">
                    <mxGeometry relative="1" as="geometry">
                        <mxPoint x="610" y="410" as="targetPoint"/>
                    </mxGeometry>
                </mxCell>
                <mxCell id="12" value="ManualTankBuilder" style="swimlane;fontStyle=1;align=center;verticalAlign=top;childLayout=stackLayout;horizontal=1;startSize=26;horizontalStack=0;resizeParent=1;resizeParentMax=0;resizeLast=0;collapsible=1;marginBottom=0;" parent="1" vertex="1">
                    <mxGeometry x="520" y="270" width="200" height="146" as="geometry"/>
                </mxCell>
                <mxCell id="54" value="+tankType : ManualForT72&lt;br&gt;&lt;b&gt;+frame : string&lt;br&gt;+tower : string&lt;br&gt;+canon : string&lt;/b&gt;" style="text;html=1;align=center;verticalAlign=middle;resizable=0;points=[];autosize=1;strokeColor=none;fillColor=none;" parent="12" vertex="1">
                    <mxGeometry y="26" width="200" height="60" as="geometry"/>
                </mxCell>
                <mxCell id="14" value="" style="line;strokeWidth=1;fillColor=none;align=left;verticalAlign=middle;spacingTop=-1;spacingLeft=3;spacingRight=3;rotatable=0;labelPosition=right;points=[];portConstraint=eastwest;" parent="12" vertex="1">
                    <mxGeometry y="86" width="200" height="34" as="geometry"/>
                </mxCell>
                <mxCell id="15" value="+ getResault() : ManualForT72" style="text;strokeColor=none;fillColor=none;align=left;verticalAlign=top;spacingLeft=4;spacingRight=4;overflow=hidden;rotatable=0;points=[[0,0.5],[1,0.5]];portConstraint=eastwest;" parent="12" vertex="1">
                    <mxGeometry y="120" width="200" height="26" as="geometry"/>
                </mxCell>
                <mxCell id="39" style="edgeStyle=none;html=1;entryX=0;entryY=1;entryDx=0;entryDy=0;endArrow=block;endFill=0;dashed=1;" parent="1" source="16" target="11" edge="1">
                    <mxGeometry relative="1" as="geometry"/>
                </mxCell>
                <mxCell id="56" style="edgeStyle=none;html=1;entryX=0.5;entryY=0;entryDx=0;entryDy=0;" parent="1" source="16" target="48" edge="1">
                    <mxGeometry relative="1" as="geometry"/>
                </mxCell>
                <mxCell id="16" value="TankBuilder" style="swimlane;fontStyle=1;align=center;verticalAlign=top;childLayout=stackLayout;horizontal=1;startSize=26;horizontalStack=0;resizeParent=1;resizeParentMax=0;resizeLast=0;collapsible=1;marginBottom=0;" parent="1" vertex="1">
                    <mxGeometry x="210" y="280" width="160" height="166" as="geometry"/>
                </mxCell>
                <mxCell id="52" value="+tankType : T72&lt;br&gt;&lt;b&gt;+frame : string&lt;br&gt;+tower : string&lt;br&gt;+canon : string&lt;/b&gt;" style="text;html=1;align=center;verticalAlign=middle;resizable=0;points=[];autosize=1;strokeColor=none;fillColor=none;" parent="16" vertex="1">
                    <mxGeometry y="26" width="160" height="60" as="geometry"/>
                </mxCell>
                <mxCell id="18" value="" style="line;strokeWidth=1;fillColor=none;align=left;verticalAlign=middle;spacingTop=-1;spacingLeft=3;spacingRight=3;rotatable=0;labelPosition=right;points=[];portConstraint=eastwest;" parent="16" vertex="1">
                    <mxGeometry y="86" width="160" height="54" as="geometry"/>
                </mxCell>
                <mxCell id="19" value="+ getResault() : T72" style="text;strokeColor=none;fillColor=none;align=left;verticalAlign=top;spacingLeft=4;spacingRight=4;overflow=hidden;rotatable=0;points=[[0,0.5],[1,0.5]];portConstraint=eastwest;" parent="16" vertex="1">
                    <mxGeometry y="140" width="160" height="26" as="geometry"/>
                </mxCell>
                <mxCell id="44" value="ManualForT72" style="swimlane;fontStyle=1;align=center;verticalAlign=top;childLayout=stackLayout;horizontal=1;startSize=26;horizontalStack=0;resizeParent=1;resizeParentMax=0;resizeLast=0;collapsible=1;marginBottom=0;" parent="1" vertex="1">
                    <mxGeometry x="540" y="487" width="160" height="154" as="geometry"/>
                </mxCell>
                <mxCell id="45" value="+ author : string&#10;+ year: number&#10;+ frame : string&#10;+ tower : string&#10;+ canon : string" style="text;strokeColor=none;fillColor=none;align=left;verticalAlign=top;spacingLeft=4;spacingRight=4;overflow=hidden;rotatable=0;points=[[0,0.5],[1,0.5]];portConstraint=eastwest;" parent="44" vertex="1">
                    <mxGeometry y="26" width="160" height="94" as="geometry"/>
                </mxCell>
                <mxCell id="46" value="" style="line;strokeWidth=1;fillColor=none;align=left;verticalAlign=middle;spacingTop=-1;spacingLeft=3;spacingRight=3;rotatable=0;labelPosition=right;points=[];portConstraint=eastwest;" parent="44" vertex="1">
                    <mxGeometry y="120" width="160" height="8" as="geometry"/>
                </mxCell>
                <mxCell id="47" value="+ testAuthor() : boolean" style="text;strokeColor=none;fillColor=none;align=left;verticalAlign=top;spacingLeft=4;spacingRight=4;overflow=hidden;rotatable=0;points=[[0,0.5],[1,0.5]];portConstraint=eastwest;" parent="44" vertex="1">
                    <mxGeometry y="128" width="160" height="26" as="geometry"/>
                </mxCell>
                <mxCell id="48" value="T72" style="swimlane;fontStyle=1;align=center;verticalAlign=top;childLayout=stackLayout;horizontal=1;startSize=26;horizontalStack=0;resizeParent=1;resizeParentMax=0;resizeLast=0;collapsible=1;marginBottom=0;" parent="1" vertex="1">
                    <mxGeometry x="210" y="490" width="160" height="148" as="geometry"/>
                </mxCell>
                <mxCell id="49" value="+ engine : string&#10;+ tracks : string&#10;+frame : string&#10;+tower : string&#10;+ canon : string" style="text;strokeColor=none;fillColor=none;align=left;verticalAlign=top;spacingLeft=4;spacingRight=4;overflow=hidden;rotatable=0;points=[[0,0.5],[1,0.5]];portConstraint=eastwest;" parent="48" vertex="1">
                    <mxGeometry y="26" width="160" height="84" as="geometry"/>
                </mxCell>
                <mxCell id="50" value="" style="line;strokeWidth=1;fillColor=none;align=left;verticalAlign=middle;spacingTop=-1;spacingLeft=3;spacingRight=3;rotatable=0;labelPosition=right;points=[];portConstraint=eastwest;" parent="48" vertex="1">
                    <mxGeometry y="110" width="160" height="8" as="geometry"/>
                </mxCell>
                <mxCell id="51" value="+ testEngine() : boolean" style="text;strokeColor=none;fillColor=none;align=left;verticalAlign=top;spacingLeft=4;spacingRight=4;overflow=hidden;rotatable=0;points=[[0,0.5],[1,0.5]];portConstraint=eastwest;" parent="48" vertex="1">
                    <mxGeometry y="118" width="160" height="30" as="geometry"/>
                </mxCell>
            </root>
        </mxGraphModel>
    </diagram>
</mxfile>